<svg id="Calque_2" data-name="Calque 2" xmlns="http://www.w3.org/2000/svg" xmlns:xlink="http://www.w3.org/1999/xlink" viewBox="0 0 237.66 75.16"><defs><radialGradient id="Dégradé_sans_nom_103" cx="184.68" cy="210.48" r="26.76" gradientUnits="userSpaceOnUse"><stop offset="0" stop-color="#ff1313"/><stop offset="0.33" stop-color="#e51313"/><stop offset="0.75" stop-color="#c91313"/><stop offset="1" stop-color="#bf1313"/></radialGradient><radialGradient id="Dégradé_sans_nom_103-2" cx="184.03" cy="223.69" r="26.02" xlink:href="#Dégradé_sans_nom_103"/></defs><title>Cogip_Logo</title><path d="M215.55,218.53c0-16.53-13.82-29.93-30.88-29.93S153.8,202,153.8,218.53a29,29,0,0,0,2.67,12.18,27.65,27.65,0,0,1-1-7.27c0-15.62,13-28.29,29-28.29s29,12.67,29,28.29a27.6,27.6,0,0,1-1.49,8.93A29.06,29.06,0,0,0,215.55,218.53Z" transform="translate(-153.8 -188.59)" style="fill:url(#Dégradé_sans_nom_103)"/><path d="M184,198.92c-15,0-27.22,11.39-27.22,25.43a24,24,0,0,0,3.68,12.77,30.79,30.79,0,0,0,8.3,7.06,17.91,17.91,0,0,1-1.75-6.32,21.08,21.08,0,0,1,5.3-16.94q6.29-7,17.73-8.13l3.52-.35-.51,4.76-2.7.27q-9.58,1-14.21,6.6a17,17,0,0,0-3.89,13,11.77,11.77,0,0,0,3.45,7.77,9,9,0,0,0,7.37,2.3,14.9,14.9,0,0,0,5.24-1.77,22.06,22.06,0,0,0,5.35-3.89l-.19,5.78a31.21,31.21,0,0,0,9.33-4.47,24.59,24.59,0,0,0,8.44-18.4C211.25,210.3,199.06,198.92,184,198.92Z" transform="translate(-153.8 -188.59)" style="fill:url(#Dégradé_sans_nom_103-2)"/><text transform="translate(69.88 57.44)" style="font-size:65.42537689208984px;fill:#1559bc;font-family:Roboto-BoldItalic, Roboto;font-weight:700;font-style:italic">Cogip</text></svg>